<?xml version="1.0" encoding="UTF-8"?>
<svg id="Layer_2" data-name="Layer 2" xmlns="http://www.w3.org/2000/svg" version="1.1" viewBox="0 0 108.2 40.2">
  <defs>
    <style>
      .cls-1 {
        fill: #000;
        stroke-width: 0px;
      }
    </style>
  </defs>
  <g id="Layer_2-2" data-name="Layer 2-2">
    <g>
      <path class="cls-1" d="M2.2.1h3.2c1.6,0,3,.2,4.1.7s1.9,1.2,2.5,2,.8,1.8.8,2.9-.3,2.3-.9,3.2c-.6.9-1.5,1.6-2.6,2.1-1.1.5-2.3.7-3.7.7h-1.6v-.6c.5,0,1,0,1.5,0,1.7,0,3-.5,3.8-1.4.9-.9,1.3-2.2,1.2-3.7,0-1.1-.3-2.1-.8-3-.5-.8-1.2-1.5-2.1-1.9s-1.8-.7-2.8-.7-.7,0-1,0l.3-.3v16.2h-2.1V.1Z"/>
      <path class="cls-1" d="M15.1.1h3.6c1.5,0,2.8.2,3.8.7,1,.5,1.8,1.1,2.3,1.9s.8,1.7.8,2.7-.3,2.2-.9,3.1c-.6.9-1.5,1.5-2.5,2-1,.5-2.2.7-3.5.7h-1.8v-.6c.4,0,.9,0,1.4,0,1.8,0,3-.4,3.9-1.3s1.2-2,1.2-3.4c0-1.1-.3-2.1-.7-3-.5-.8-1.1-1.5-1.9-1.9s-1.7-.6-2.6-.7c-.5,0-.9,0-1.4,0l.5-.3v16.2h-2.1s0-16.4,0-16.4ZM19.6,10.8l2-.6,4.8,6.2h-2.5s-4.3-5.6-4.3-5.6Z"/>
      <path class="cls-1" d="M27,16.5l7.1-13.1h.3c-.9,2.1-1.8,4.2-2.5,6.3-.7,2.1-1.3,4.1-1.8,5.9,0,.3-.2.5-.4.6-.2.2-.4.2-.7.2h-2ZM30.5,12.5h7.8v.5h-7.8s0-.5,0-.5ZM34,4.2h0S31.9.1,31.9.1h2.4l7.5,16.4h-2.2s-5.6-12.3-5.6-12.3Z"/>
      <path class="cls-1" d="M44.3,3.1h0c0,0-2.6-3-2.6-3h2.7l12.8,15.5-.2.3c-.3-5.7-.9-10.7-1.7-14.8,0-.3,0-.5.1-.7s.4-.3.7-.3h1.7s-.6,16.4-.6,16.4h-1.9l-11-13.4h0ZM44.1,2.3h.2c.2,2.5.4,4.8.7,6.9.2,2.2.5,4.2.9,6.2,0,.3,0,.5-.2.7-.2.2-.4.3-.7.3h-1.7s.8-14.1.8-14.1Z"/>
      <path class="cls-1" d="M59.4,16.5l7.1-13.1h.3c-.9,2.1-1.8,4.2-2.5,6.3-.7,2.1-1.3,4.1-1.8,5.9,0,.3-.2.5-.4.6-.2.2-.4.2-.7.2,0,0-2,0-2,0ZM62.8,12.5h7.8v.5h-7.8s0-.5,0-.5ZM66.3,4.2h0S64.2.1,64.2.1h2.4l7.5,16.4h-2.2s-5.6-12.3-5.6-12.3Z"/>
    </g>
    <g>
      <path class="cls-1" d="M4.9,39.3c-1-.4-1.9-1-2.8-1.6l-.3-2c0-.2,0-.3,0-.4s.2-.2.4-.2c.2,0,.3,0,.4.2,1.1,1,2.2,1.8,3.5,2.5,1.2.6,2.4.9,3.4.9s1.3-.2,1.8-.5c.4-.3.6-.8.6-1.4s-.2-1.1-.5-1.5c-.3-.5-.8-.9-1.4-1.3s-1.4-1-2.6-1.7c-1.2-.8-2.2-1.5-2.9-2.1-.7-.6-1.2-1.2-1.5-1.7-.3-.5-.4-1.1-.4-1.7s.2-1.2.5-1.7c.3-.5.9-1,1.6-1.3.7-.3,1.6-.5,2.6-.5s1.5.1,2.3.3c.8.2,1.5.5,2.2.8l.3,1.9c0,.2,0,.3,0,.4s-.2.2-.4.2-.3,0-.4-.1c-.9-.7-1.9-1.3-3-1.8s-1.9-.7-2.7-.7-1.1.1-1.5.4-.5.7-.5,1.1.3,1.2,1.1,1.9c.7.7,1.8,1.5,3.3,2.4,1.2.8,2.2,1.5,2.9,2.1.7.6,1.2,1.2,1.4,1.7.3.5.4,1.2.4,1.8s-.2,1.7-.6,2.3-.9,1.2-1.6,1.6c-.7.4-1.6.6-2.6.6s-2.1-.2-3.1-.6h0Z"/>
      <path class="cls-1" d="M13.3,39.7l7.1-13.1h.3c-.9,2.1-1.8,4.2-2.5,6.3-.7,2.1-1.3,4.1-1.8,6,0,.3-.2.5-.4.6-.2.2-.4.2-.7.2h-2ZM16.8,35.6h7.8v.5h-7.8v-.5ZM20.3,27.4h0s-2-4.1-2-4.1h2.4l7.5,16.4h-2.2s-5.6-12.3-5.6-12.3Z"/>
      <path class="cls-1" d="M31.8,39.2c-.9-.5-1.6-1.3-2.1-2.3s-.8-2.2-.8-3.6v-10h2.1v10c0,1.2.2,2.3.6,3.2s1,1.6,1.7,2c.7.5,1.5.7,2.5.7,1.5,0,2.5-.5,3.2-1.5s1-2.3,1-3.8c0-.8,0-2-.2-3.5-.1-1.5-.4-3.6-.7-6.1,0-.3,0-.5.2-.7s.4-.3.7-.3h1.6s-.3,9.8-.3,9.8c0,1.4-.3,2.6-.9,3.6s-1.3,1.8-2.3,2.4-2,.8-3.2.8-2.1-.2-3-.8Z"/>
      <path class="cls-1" d="M45.4,26.2h0c0,0-2.6-3-2.6-3h2.7l12.8,15.5-.2.3c-.3-5.7-.9-10.7-1.7-14.8,0-.3,0-.5.1-.7s.4-.3.7-.3h1.7s-.6,16.4-.6,16.4h-1.9l-11-13.4h0ZM45.2,25.5h.2c.2,2.5.4,4.8.7,6.9.2,2.2.5,4.2.9,6.2,0,.3,0,.5-.2.7-.2.2-.4.3-.7.3h-1.7s.8-14.1.8-14.1Z"/>
      <path class="cls-1" d="M60.4,39.7l7.1-13.1h.3c-.9,2.1-1.8,4.2-2.5,6.3-.7,2.1-1.3,4.1-1.8,6,0,.3-.2.5-.4.6-.2.2-.4.2-.7.2h-2ZM63.9,35.6h7.8v.5h-7.8s0-.5,0-.5ZM67.4,27.4h0s-2-4.1-2-4.1h2.4l7.5,16.4h-2.2s-5.6-12.3-5.6-12.3Z"/>
    </g>
    <g>
      <path class="cls-1" d="M87.1,38.7c-6.2-1.1-11.2-7.2-11.1-13.4.1-6.3,14.8-24.8,14.9-24.9.2-.2.4-.3.7-.4h0c.3,0,.6.1.8.3.3.3,7.9,8.5,7.8,13.7,0,3.3-3.9,7.8-7.2,11.7-1.6,1.8-3.2,3.7-4,5.1-2.2,3.6-.9,6.4-.9,6.4.2.3.1.7-.1,1-.2.2-.6.3-.7.3h0s-.2,0-.2,0ZM91.7,2.5c-.6.7-13.7,17.6-13.8,22.9,0,4.7,3.3,9.5,7.8,11.1h0s0,0,0,0c-.2-1.5-.2-3.8,1.4-6.4.9-1.4,2.4-3.2,4-5.1l.2-.3c2.8-3.3,6.7-7.9,6.8-10.6.1-3.7-5.4-10.3-6.5-11.6h0s0,0,0,0Z"/>
      <path class="cls-1" d="M92,40.4c-.5,0-.9-.2-1-.5-.6-2.6-.6-3.1-.6-3.8,0-.2,0-.3,0-.6.2-3.4,2.9-5.1,3-5.1l.4.4c0,0-3.5,5.5-.8,7.5,1.8,0,6.4-4.1,6.6-7.1.2-3.7-.9-7.6-.9-7.6l.5-.3s2.5,3.6,2.3,8c0,1.4-.6,2.8-1.7,4.3.5-.3.7-.6.8-.6.5-.4,4.6-4,4.4-8.4-.2-4.2-2.5-7.6-3.2-8.5l.4-.5c.2.1,4.5,3.6,4.7,8.9.2,4.7-3.4,8.4-4.8,9.7h-.1c0,.1-2,2.3-6.6,3.6-.2,0-.4.1-.6.2-.8.2-1.8.6-2.6.6Z"/>
      <path class="cls-1" d="M84.5,30.8c-3.5-4-.3-8.2-.3-8.3l7.6-10.3c.2-.2.4-.4.7-.4h0c.3,0,.6.1.8.4l1.8,4.5-.5.3-2.1-2.6-6.8,9.2s-2.4,3.5-.8,6.9l-.5.3Z"/>
    </g>
  </g>
</svg>